<?xml version="1.0" encoding="UTF-8" standalone="no"?><!DOCTYPE svg PUBLIC "-//W3C//DTD SVG 1.1//EN" "http://www.w3.org/Graphics/SVG/1.1/DTD/svg11.dtd"><svg width="100%" height="100%" viewBox="0 0 16 16" version="1.1" xmlns="http://www.w3.org/2000/svg" xmlns:xlink="http://www.w3.org/1999/xlink" xml:space="preserve" xmlns:serif="http://www.serif.com/" style="fill-rule:evenodd;clip-rule:evenodd;stroke-linejoin:bevel;stroke-miterlimit:2;"><path d="M14,4.571l0,6.5l-1,0l0,-6.5l-2,0c-0.823,0 -1.5,-0.677 -1.5,-1.5l0,-2l-5.5,0c-0.549,0 -1,0.452 -1,1l0,9l-1,0l0,-9c0,-1.097 0.903,-2 2,-2l5.5,0l4.5,4.5Z"/><g><path d="M5.812,15.444l-0.307,0.387l-0.646,-0.539c-0.29,0.186 -0.618,0.279 -0.982,0.279c-0.55,0 -1.001,-0.196 -1.351,-0.588c-0.351,-0.393 -0.526,-0.91 -0.526,-1.552c0,-0.643 0.175,-1.161 0.526,-1.552c0.35,-0.392 0.801,-0.587 1.351,-0.587c0.548,-0 0.996,0.195 1.345,0.587c0.349,0.391 0.523,0.909 0.523,1.552c0,0.625 -0.169,1.138 -0.507,1.539l0.574,0.474Zm-0.964,-0.799c0.241,-0.301 0.361,-0.705 0.361,-1.214c-0,-0.526 -0.125,-0.937 -0.374,-1.23c-0.249,-0.294 -0.567,-0.441 -0.953,-0.441c-0.393,0 -0.716,0.147 -0.968,0.441c-0.252,0.293 -0.377,0.704 -0.377,1.23c-0,0.526 0.125,0.935 0.376,1.23c0.251,0.294 0.57,0.442 0.958,0.442c0.207,-0 0.403,-0.046 0.59,-0.139l-0.389,-0.324l0.307,-0.387l0.469,0.392Z" style="fill-rule:nonzero;stroke:#000;stroke-width:0.2px;"/><path d="M7.75,15.571c-0.454,0 -0.793,-0.093 -1.018,-0.279c-0.225,-0.186 -0.368,-0.406 -0.427,-0.658c-0.06,-0.252 -0.09,-0.545 -0.09,-0.878l0,-2.394l0.518,0l0,2.386c0,0.544 0.087,0.901 0.259,1.072c0.173,0.172 0.425,0.257 0.758,0.257c0.333,0 0.586,-0.085 0.758,-0.257c0.173,-0.171 0.259,-0.528 0.259,-1.072l0,-2.386l0.521,0l-0,2.394c-0,0.501 -0.057,0.87 -0.17,1.107c-0.113,0.237 -0.283,0.414 -0.511,0.532c-0.228,0.118 -0.513,0.176 -0.857,0.176Z" style="fill:none;fill-rule:nonzero;stroke:#000;stroke-width:0.2px;stroke-linecap:square;"/><path d="M7.75,15.571c-0.454,0 -0.793,-0.093 -1.018,-0.279c-0.225,-0.186 -0.368,-0.406 -0.427,-0.658c-0.06,-0.252 -0.09,-0.545 -0.09,-0.878l0,-2.394l0.518,0l0,2.386c0,0.544 0.087,0.901 0.259,1.072c0.173,0.172 0.425,0.257 0.758,0.257c0.333,0 0.586,-0.085 0.758,-0.257c0.173,-0.171 0.259,-0.528 0.259,-1.072l0,-2.386l0.521,0l-0,2.394c-0,0.501 -0.057,0.87 -0.17,1.107c-0.113,0.237 -0.283,0.414 -0.511,0.532c-0.228,0.118 -0.513,0.176 -0.857,0.176Z" style="fill-rule:nonzero;"/><rect x="10.009" y="11.362" width="0.521" height="4.139" style="fill:none;fill-rule:nonzero;stroke:#000;stroke-width:0.2px;"/><rect x="10.009" y="11.362" width="0.521" height="4.139" style="fill-rule:nonzero;"/><path d="M14,15.501l-3.094,-0l0,-0.514l2.432,-3.134l-2.208,0l0,-0.491l2.803,0l0,0.514l-2.432,3.134l2.499,-0l0,0.491Z" style="fill:none;fill-rule:nonzero;stroke:#000;stroke-width:0.2px;stroke-linecap:round;"/><path d="M14,15.501l-3.094,-0l0,-0.514l2.432,-3.134l-2.208,0l0,-0.491l2.803,0l0,0.514l-2.432,3.134l2.499,-0l0,0.491Z" style="fill-rule:nonzero;"/></g></svg>